<svg xmlns="http://www.w3.org/2000/svg" width="204" height="192" viewBox="0 0 204 192">
<g>
<path d="M 116.14 184.97 C104.50,186.13 98.09,186.11 86.57,184.90 C78.68,184.07 59.72,179.74 55.46,177.80 C52.22,176.32 50.76,172.62 52.19,169.48 C53.61,166.36 56.62,165.52 61.54,166.88 C63.61,167.46 65.63,167.73 66.02,167.49 C66.40,167.25 67.00,165.01 67.34,162.51 C67.69,160.01 68.63,156.68 69.44,155.11 C71.15,151.82 70.68,151.01 67.08,150.98 C65.66,150.96 58.92,149.85 52.09,148.50 C32.68,144.67 29.79,141.60 24.00,118.66 C17.40,92.55 18.13,71.66 26.55,45.00 C31.03,30.82 33.55,28.73 50.50,25.14 C85.77,17.66 122.82,17.82 156.04,25.60 C168.50,28.52 172.21,30.54 174.94,35.89 C178.07,42.01 181.75,55.81 183.59,68.24 C187.42,94.16 181.53,130.04 171.70,140.71 C167.30,145.48 165.67,146.08 149.00,149.06 C136.69,151.26 133.63,151.67 133.48,152.58 C133.43,152.87 133.68,153.20 134.01,153.66 C134.15,153.85 134.30,154.05 134.45,154.28 C135.26,155.52 136.57,159.00 137.36,162.01 C138.15,165.03 139.18,167.43 139.65,167.34 C147.38,165.90 149.78,165.93 151.34,167.48 C153.81,169.95 153.44,174.51 150.59,176.75 C147.35,179.30 128.92,183.70 116.14,184.97 ZM 76.50 140.00 C80.90,140.47 94.62,140.71 107.00,140.54 C130.46,140.21 146.03,138.31 158.05,134.29 L 163.43 132.50 L 166.62 123.00 C168.38,117.78 170.42,109.90 171.16,105.50 C172.96,94.74 172.68,73.47 170.60,64.00 C168.43,54.07 164.20,41.41 162.62,40.10 C160.58,38.40 133.70,34.07 117.71,32.86 C106.84,32.03 98.75,32.03 87.21,32.84 C71.48,33.95 46.94,37.89 43.16,39.91 C42.05,40.51 40.18,43.58 38.99,46.75 C30.29,69.98 30.31,103.04 39.04,126.38 C40.79,131.06 41.85,132.46 44.46,133.55 C48.82,135.37 66.63,138.96 76.50,140.00 ZM 91.97 121.02 C90.96,121.56 89.76,121.99 89.32,121.97 C87.43,121.90 84.82,119.67 83.95,117.37 C83.17,115.33 84.02,112.83 88.92,102.70 C96.62,86.79 103.38,71.63 105.29,66.00 C108.84,55.53 110.13,53.19 113.07,51.97 C115.50,50.96 116.40,51.03 118.49,52.40 C122.09,54.76 121.74,58.28 116.60,71.33 C106.94,95.90 95.40,119.18 91.97,121.02 ZM 75.53 112.65 C73.61,115.39 70.88,116.04 67.93,114.46 C64.85,112.81 50.60,96.75 47.32,91.22 C45.00,87.32 44.90,86.67 46.10,83.76 C47.63,80.06 60.14,64.74 64.90,60.73 C68.75,57.50 72.24,57.24 75.00,60.00 C78.07,63.07 77.43,65.66 72.19,71.31 C64.23,79.89 59.75,85.90 60.31,87.24 C60.60,87.93 64.48,92.71 68.92,97.87 C73.36,103.02 77.00,107.98 77.00,108.89 C77.00,109.81 76.34,111.50 75.53,112.65 ZM 145.22 106.14 C140.66,110.90 136.04,115.02 134.97,115.30 C133.88,115.58 131.93,114.94 130.51,113.83 C127.37,111.36 127.19,107.04 130.11,104.40 C133.02,101.79 145.00,87.37 145.00,86.50 C145.00,85.42 135.66,73.96 131.59,70.05 C127.33,65.97 126.81,61.95 130.22,59.56 C134.62,56.48 137.04,57.50 144.83,65.75 C152.20,73.55 160.00,84.19 160.00,86.44 C160.00,88.83 153.39,97.64 145.22,106.14 ZM 90.50 172.41 C94.46,172.98 117.48,172.24 122.25,171.40 C125.88,170.76 126.00,170.61 126.00,166.54 C126.00,163.52 125.13,161.03 122.91,157.67 L 119.81 153.00 L 84.45 153.00 L 81.72 157.20 C79.73,160.27 79.00,162.68 79.00,166.14 L 79.00 170.88 L 83.25 171.43 C85.59,171.74 88.85,172.18 90.50,172.41 Z" fill="rgb(0,0,0)"/>
<path d="M 0.00 96.00 L 0.00 0.00 L 102.00 0.00 L 204.00 0.00 L 204.00 96.00 L 204.00 192.00 L 102.00 192.00 L 0.00 192.00 L 0.00 96.00 ZM 116.14 184.97 C128.92,183.70 147.35,179.30 150.59,176.75 C153.44,174.51 153.81,169.95 151.34,167.48 C149.78,165.93 147.38,165.90 139.65,167.34 C139.18,167.43 138.15,165.03 137.36,162.01 C136.57,159.00 135.26,155.52 134.45,154.28 C132.75,151.69 131.20,152.24 149.00,149.06 C165.67,146.08 167.30,145.48 171.70,140.71 C181.53,130.04 187.42,94.16 183.59,68.24 C181.75,55.81 178.07,42.01 174.94,35.89 C172.21,30.54 168.50,28.52 156.04,25.60 C122.82,17.82 85.77,17.66 50.50,25.14 C33.55,28.73 31.03,30.82 26.55,45.00 C18.13,71.66 17.40,92.55 24.00,118.66 C29.79,141.60 32.68,144.67 52.09,148.50 C58.92,149.85 65.66,150.96 67.08,150.98 C70.68,151.01 71.15,151.82 69.44,155.11 C68.63,156.68 67.69,160.01 67.34,162.51 C67.00,165.01 66.40,167.25 66.02,167.49 C65.63,167.73 63.61,167.46 61.54,166.88 C56.62,165.52 53.61,166.36 52.19,169.48 C50.76,172.62 52.22,176.32 55.46,177.80 C59.72,179.74 78.68,184.07 86.57,184.90 C98.09,186.11 104.50,186.13 116.14,184.97 ZM 90.50 172.41 C88.85,172.18 85.59,171.74 83.25,171.43 L 79.00 170.88 L 79.00 166.14 C79.00,162.68 79.73,160.27 81.72,157.20 L 84.45 153.00 L 102.13 153.00 L 119.81 153.00 L 122.91 157.67 C125.13,161.03 126.00,163.52 126.00,166.54 C126.00,170.61 125.88,170.76 122.25,171.40 C117.48,172.24 94.46,172.98 90.50,172.41 ZM 76.50 140.00 C66.63,138.96 48.82,135.37 44.46,133.55 C41.85,132.46 40.79,131.06 39.04,126.38 C30.31,103.04 30.29,69.98 38.99,46.75 C40.18,43.58 42.05,40.51 43.16,39.91 C46.94,37.89 71.48,33.95 87.21,32.84 C98.75,32.03 106.84,32.03 117.71,32.86 C133.70,34.07 160.58,38.40 162.62,40.10 C164.20,41.41 168.43,54.07 170.60,64.00 C172.68,73.47 172.96,94.74 171.16,105.50 C170.42,109.90 168.38,117.78 166.62,123.00 L 163.43 132.50 L 158.05 134.29 C146.03,138.31 130.46,140.21 107.00,140.54 C94.62,140.71 80.90,140.47 76.50,140.00 ZM 91.97 121.02 C95.40,119.18 106.94,95.90 116.60,71.33 C121.74,58.28 122.09,54.76 118.49,52.40 C116.40,51.03 115.50,50.96 113.07,51.97 C110.13,53.19 108.84,55.53 105.29,66.00 C103.38,71.63 96.62,86.79 88.92,102.70 C84.02,112.83 83.17,115.33 83.95,117.37 C84.82,119.67 87.43,121.90 89.32,121.97 C89.76,121.99 90.96,121.56 91.97,121.02 ZM 75.53 112.65 C76.34,111.50 77.00,109.81 77.00,108.89 C77.00,107.98 73.36,103.02 68.92,97.87 C64.48,92.71 60.60,87.93 60.31,87.24 C59.75,85.90 64.23,79.89 72.19,71.31 C77.43,65.66 78.07,63.07 75.00,60.00 C72.24,57.24 68.75,57.50 64.90,60.73 C60.14,64.74 47.63,80.06 46.10,83.76 C44.90,86.67 45.00,87.32 47.32,91.22 C50.60,96.75 64.85,112.81 67.93,114.46 C70.88,116.04 73.61,115.39 75.53,112.65 ZM 145.22 106.14 C153.39,97.64 160.00,88.83 160.00,86.44 C160.00,84.19 152.20,73.55 144.83,65.75 C137.04,57.50 134.62,56.48 130.22,59.56 C126.81,61.95 127.33,65.97 131.59,70.05 C135.66,73.96 145.00,85.42 145.00,86.50 C145.00,87.37 133.02,101.79 130.11,104.40 C127.19,107.04 127.37,111.36 130.51,113.83 C131.93,114.94 133.88,115.58 134.97,115.30 C136.04,115.02 140.66,110.90 145.22,106.14 Z" fill="rgb(254,254,254)"/>
</g>
</svg>